<svg width="24" height="29" viewBox="0 0 24 29" fill="none" xmlns="http://www.w3.org/2000/svg">
<path d="M23.2335 9.88709C23.0625 10.0176 20.0437 11.6911 20.0437 15.4121C20.0437 19.7162 23.885 21.2388 24 21.2765C23.9823 21.3693 23.3898 23.3618 21.9747 25.392C20.7129 27.1786 19.3952 28.9623 17.3905 28.9623C15.3858 28.9623 14.8699 27.8167 12.5557 27.8167C10.3005 27.8167 9.49859 29 7.66491 29C5.83122 29 4.55177 27.3468 3.0807 25.3166C1.37674 22.9326 0 19.2289 0 15.7138C0 10.0756 3.72632 7.08541 7.39369 7.08541C9.34234 7.08541 10.9667 8.34413 12.1901 8.34413C13.3546 8.34413 15.1706 7.01 17.3875 7.01C18.2277 7.01 21.2465 7.08541 23.2335 9.88709ZM16.3351 4.62306C17.2519 3.55286 17.9005 2.06791 17.9005 0.582958C17.9005 0.377038 17.8828 0.168217 17.8445 0C16.3528 0.0551055 14.5781 0.977398 13.5079 2.19842C12.6677 3.13811 11.8836 4.62306 11.8836 6.12831C11.8836 6.35454 11.9219 6.58076 11.9396 6.65326C12.0339 6.67067 12.1872 6.69097 12.3405 6.69097C13.6789 6.69097 15.3622 5.80928 16.3351 4.62306Z" fill="black"/>
</svg>
