<svg width="56" height="56" viewBox="0 0 56 56" fill="none" xmlns="http://www.w3.org/2000/svg">
<rect width="56" height="56" rx="28" fill="black"/>
<path d="M14 25.7222V24.3333C14 21.6713 15.256 19.6167 17.7681 18.1694C20.2792 16.7231 23.6528 16 27.8889 16C32.125 16 35.4991 16.7231 38.0111 18.1694C40.5222 19.6167 41.7778 21.6713 41.7778 24.3333V25.7222H14ZM16.9861 22.9444H38.7917C38.2593 21.6019 37.0268 20.5718 35.0944 19.8542C33.1611 19.1366 30.7593 18.7778 27.8889 18.7778C25.0185 18.7778 22.6167 19.1366 20.6833 19.8542C18.7509 20.5718 17.5185 21.6019 16.9861 22.9444ZM14 31.9722V29.1944C14.8333 29.1944 15.4931 28.963 15.9792 28.5C16.4653 28.037 17.3565 27.8056 18.6528 27.8056C19.9491 27.8056 20.8287 28.037 21.2917 28.5C21.7546 28.963 22.4028 29.1944 23.2361 29.1944C24.0694 29.1944 24.7292 28.963 25.2153 28.5C25.7014 28.037 26.5926 27.8056 27.8889 27.8056C29.1852 27.8056 30.0764 28.037 30.5625 28.5C31.0486 28.963 31.7083 29.1944 32.5417 29.1944C33.375 29.1944 34.0231 28.963 34.4861 28.5C34.9491 28.037 35.8287 27.8056 37.125 27.8056C38.4213 27.8056 39.3356 28.037 39.8681 28.5C40.4005 28.963 41.037 29.1944 41.7778 29.1944V31.9722C40.4815 31.9722 39.6134 31.7407 39.1736 31.2778C38.7338 30.8148 38.0972 30.5833 37.2639 30.5833C36.4306 30.5833 35.7593 30.8148 35.25 31.2778C34.7407 31.7407 33.838 31.9722 32.5417 31.9722C31.2454 31.9722 30.3542 31.7407 29.8681 31.2778C29.3819 30.8148 28.7222 30.5833 27.8889 30.5833C27.0556 30.5833 26.3958 30.8148 25.9097 31.2778C25.4236 31.7407 24.5324 31.9722 23.2361 31.9722C21.9398 31.9722 21.0602 31.7407 20.5972 31.2778C20.1343 30.8148 19.4861 30.5833 18.6528 30.5833C17.8194 30.5833 17.1597 30.8148 16.6736 31.2778C16.1875 31.7407 15.2963 31.9722 14 31.9722ZM16.7778 41C16.0139 41 15.3602 40.7282 14.8167 40.1847C14.2722 39.6403 14 38.9861 14 38.2222V34.0556H41.7778V38.2222C41.7778 38.9861 41.506 39.6403 40.9625 40.1847C40.4181 40.7282 39.7639 41 39 41H16.7778ZM16.7778 38.2222H39V36.8333H16.7778V38.2222Z" fill="#F9F9F9"/>
</svg>
