<svg width="40" height="40" viewBox="0 0 40 40" fill="none" xmlns="http://www.w3.org/2000/svg">
<g clip-path="url(#clip0_3276_5491)">
<path d="M34.1508 5.85412C26.3518 -1.94486 13.6579 -1.94486 5.85888 5.85412C2.08104 9.63345 0 14.6572 0 20C0 25.3429 2.08104 30.3666 5.85888 34.1445C9.75916 38.0447 14.882 39.9941 20.0048 39.9941C25.1276 39.9941 30.2505 38.0447 34.1507 34.1445C41.9497 26.3455 41.9497 13.6546 34.1508 5.85412ZM31.9597 31.9534C25.3678 38.5452 14.6418 38.5452 8.04992 31.9534C4.85786 28.7613 3.09909 24.5155 3.09909 20C3.09909 15.4846 4.85786 11.2388 8.04992 8.04516C14.6418 1.4533 25.3678 1.45486 31.9597 8.04516C38.55 14.637 38.55 25.3631 31.9597 31.9534Z" fill="white"/>
<path d="M26.6819 24.2835L22.295 19.9029L26.6819 15.5223C27.2862 14.918 27.2862 13.9371 26.6834 13.3312C26.0776 12.7237 25.0967 12.7253 24.4908 13.3296L20.1009 17.7133L15.7111 13.3296C15.1052 12.7253 14.1243 12.7237 13.5185 13.3312C12.9142 13.937 12.9142 14.9179 13.52 15.5223L17.9069 19.9029L13.52 24.2835C12.9142 24.8878 12.9142 25.8686 13.5185 26.4746C13.8207 26.7782 14.2189 26.9286 14.6156 26.9286C15.0123 26.9286 15.4089 26.7767 15.7111 26.476L20.101 22.0923L24.4909 26.476C24.7931 26.7782 25.1897 26.9286 25.5865 26.9286C25.9832 26.9286 26.3814 26.7767 26.6836 26.4746C27.2877 25.8686 27.2877 24.8878 26.6819 24.2835Z" fill="white"/>
</g>
<defs>
<clipPath id="clip0_3276_5491">
<rect width="40" height="40" fill="white"/>
</clipPath>
</defs>
</svg>
