<svg width="20" height="21" viewBox="0 0 20 21" fill="none" xmlns="http://www.w3.org/2000/svg">
<path d="M8.6 14.9721L15.65 7.92207L14.25 6.52207L8.6 12.1721L5.75 9.32207L4.35 10.7221L8.6 14.9721ZM10 20.3721C8.61667 20.3721 7.31667 20.1094 6.1 19.5841C4.88333 19.0594 3.825 18.3471 2.925 17.4471C2.025 16.5471 1.31267 15.4887 0.788 14.2721C0.262667 13.0554 0 11.7554 0 10.3721C0 8.98874 0.262667 7.68874 0.788 6.47207C1.31267 5.2554 2.025 4.19707 2.925 3.29707C3.825 2.39707 4.88333 1.6844 6.1 1.15907C7.31667 0.634404 8.61667 0.37207 10 0.37207C11.3833 0.37207 12.6833 0.634404 13.9 1.15907C15.1167 1.6844 16.175 2.39707 17.075 3.29707C17.975 4.19707 18.6873 5.2554 19.212 6.47207C19.7373 7.68874 20 8.98874 20 10.3721C20 11.7554 19.7373 13.0554 19.212 14.2721C18.6873 15.4887 17.975 16.5471 17.075 17.4471C16.175 18.3471 15.1167 19.0594 13.9 19.5841C12.6833 20.1094 11.3833 20.3721 10 20.3721ZM10 18.3721C12.2333 18.3721 14.125 17.5971 15.675 16.0471C17.225 14.4971 18 12.6054 18 10.3721C18 8.13874 17.225 6.24707 15.675 4.69707C14.125 3.14707 12.2333 2.37207 10 2.37207C7.76667 2.37207 5.875 3.14707 4.325 4.69707C2.775 6.24707 2 8.13874 2 10.3721C2 12.6054 2.775 14.4971 4.325 16.0471C5.875 17.5971 7.76667 18.3721 10 18.3721Z" fill="#3A8459"/>
</svg>
