<svg width="25" height="25" viewBox="0 0 25 25" fill="none" xmlns="http://www.w3.org/2000/svg">
<mask id="mask0_1589_15157" style="mask-type:alpha" maskUnits="userSpaceOnUse" x="0" y="0" width="25" height="25">
<rect x="0.5" y="0.864258" width="24" height="24" fill="#D9D9D9"/>
</mask>
<g mask="url(#mask0_1589_15157)">
<path d="M11.1 17.4643L18.15 10.4143L16.75 9.01426L11.1 14.6643L8.25 11.8143L6.85 13.2143L11.1 17.4643ZM12.5 22.8643C11.1167 22.8643 9.81667 22.6016 8.6 22.0763C7.38333 21.5516 6.325 20.8393 5.425 19.9393C4.525 19.0393 3.81267 17.9809 3.288 16.7643C2.76267 15.5476 2.5 14.2476 2.5 12.8643C2.5 11.4809 2.76267 10.1809 3.288 8.96426C3.81267 7.74759 4.525 6.68926 5.425 5.78926C6.325 4.88926 7.38333 4.17659 8.6 3.65126C9.81667 3.12659 11.1167 2.86426 12.5 2.86426C13.8833 2.86426 15.1833 3.12659 16.4 3.65126C17.6167 4.17659 18.675 4.88926 19.575 5.78926C20.475 6.68926 21.1873 7.74759 21.712 8.96426C22.2373 10.1809 22.5 11.4809 22.5 12.8643C22.5 14.2476 22.2373 15.5476 21.712 16.7643C21.1873 17.9809 20.475 19.0393 19.575 19.9393C18.675 20.8393 17.6167 21.5516 16.4 22.0763C15.1833 22.6016 13.8833 22.8643 12.5 22.8643ZM12.5 20.8643C14.7333 20.8643 16.625 20.0893 18.175 18.5393C19.725 16.9893 20.5 15.0976 20.5 12.8643C20.5 10.6309 19.725 8.73926 18.175 7.18926C16.625 5.63926 14.7333 4.86426 12.5 4.86426C10.2667 4.86426 8.375 5.63926 6.825 7.18926C5.275 8.73926 4.5 10.6309 4.5 12.8643C4.5 15.0976 5.275 16.9893 6.825 18.5393C8.375 20.0893 10.2667 20.8643 12.5 20.8643Z" fill="url(#paint0_linear_1589_15157)"/>
</g>
<defs>
<linearGradient id="paint0_linear_1589_15157" x1="12.5" y1="2.86426" x2="12.5" y2="22.8643" gradientUnits="userSpaceOnUse">
<stop stop-color="#FFF07C"/>
<stop offset="1" stop-color="#FF8811"/>
</linearGradient>
</defs>
</svg>
