<svg width="32" height="32" viewBox="0 0 32 32" fill="none" xmlns="http://www.w3.org/2000/svg">
<rect x="0.346491" y="0.346491" width="31.307" height="31.307" rx="15.6535" fill="#FF8811"/>
<path d="M15.9997 9.35938C12.333 9.35938 9.33301 12.3527 9.33301 16.0394C9.33301 19.3727 11.773 22.1394 14.9597 22.6394V17.9727H13.2663V16.0394H14.9597V14.566C14.9597 12.8927 15.953 11.9727 17.4797 11.9727C18.2063 11.9727 18.9663 12.0994 18.9663 12.0994V13.746H18.1263C17.2997 13.746 17.0397 14.2594 17.0397 14.786V16.0394H18.893L18.593 17.9727H17.0397V22.6394C18.6106 22.3913 20.0411 21.5897 21.073 20.3794C22.1048 19.1691 22.6699 17.6298 22.6663 16.0394C22.6663 12.3527 19.6663 9.35938 15.9997 9.35938Z" fill="white"/>
<rect x="0.346491" y="0.346491" width="31.307" height="31.307" rx="15.6535" stroke="#FF8811" stroke-width="0.692982"/>
</svg>
