<svg width="22" height="16" viewBox="0 0 22 16" fill="none" xmlns="http://www.w3.org/2000/svg">
<path d="M21.4868 3.08659C21.2345 2.2116 20.4957 1.5217 19.5587 1.28613C17.847 0.848633 10.9999 0.848633 10.9999 0.848633C10.9999 0.848633 4.15275 0.848633 2.44097 1.2693C1.52202 1.50488 0.76523 2.2116 0.512968 3.08659C0.0625 4.68514 0.0625 8.00001 0.0625 8.00001C0.0625 8.00001 0.0625 11.3317 0.512968 12.9134C0.76523 13.7884 1.504 14.4783 2.44097 14.7139C4.17077 15.1514 10.9999 15.1514 10.9999 15.1514C10.9999 15.1514 17.847 15.1514 19.5587 14.7307C20.4957 14.4952 21.2345 13.8053 21.4868 12.9303C21.9372 11.3317 21.9372 8.01684 21.9372 8.01684C21.9372 8.01684 21.9552 4.68514 21.4868 3.08659Z" fill="#353535"/>
<path d="M14.5123 8.00095L8.81836 4.93848V11.0634L14.5123 8.00095Z" fill="#FCFCFC"/>
</svg>
