<svg width="32" height="32" viewBox="0 0 32 32" fill="none" xmlns="http://www.w3.org/2000/svg">
<rect x="0.346491" y="0.346491" width="31.307" height="31.307" rx="15.6535" fill="#FF8811"/>
<path d="M13.5156 9.64844H19.1156C21.2489 9.64844 22.9823 11.3818 22.9823 13.5151V19.1151C22.9823 20.1406 22.5749 21.1241 21.8497 21.8492C21.1246 22.5744 20.1411 22.9818 19.1156 22.9818H13.5156C11.3823 22.9818 9.64893 21.2484 9.64893 19.1151V13.5151C9.64893 12.4896 10.0563 11.5061 10.7814 10.781C11.5066 10.0558 12.4901 9.64844 13.5156 9.64844ZM13.3823 10.9818C12.7457 10.9818 12.1353 11.2346 11.6852 11.6847C11.2351 12.1348 10.9823 12.7453 10.9823 13.3818V19.2484C10.9823 20.5751 12.0556 21.6484 13.3823 21.6484H19.2489C19.8854 21.6484 20.4959 21.3956 20.946 20.9455C21.3961 20.4954 21.6489 19.885 21.6489 19.2484V13.3818C21.6489 12.0551 20.5756 10.9818 19.2489 10.9818H13.3823ZM19.8156 11.9818C20.0366 11.9818 20.2486 12.0696 20.4048 12.2258C20.5611 12.3821 20.6489 12.5941 20.6489 12.8151C20.6489 13.0361 20.5611 13.2481 20.4048 13.4044C20.2486 13.5606 20.0366 13.6484 19.8156 13.6484C19.5946 13.6484 19.3826 13.5606 19.2263 13.4044C19.0701 13.2481 18.9823 13.0361 18.9823 12.8151C18.9823 12.5941 19.0701 12.3821 19.2263 12.2258C19.3826 12.0696 19.5946 11.9818 19.8156 11.9818ZM16.3156 12.9818C17.1996 12.9818 18.0475 13.333 18.6726 13.9581C19.2977 14.5832 19.6489 15.431 19.6489 16.3151C19.6489 17.1992 19.2977 18.047 18.6726 18.6721C18.0475 19.2972 17.1996 19.6484 16.3156 19.6484C15.4315 19.6484 14.5837 19.2972 13.9586 18.6721C13.3334 18.047 12.9823 17.1992 12.9823 16.3151C12.9823 15.431 13.3334 14.5832 13.9586 13.9581C14.5837 13.333 15.4315 12.9818 16.3156 12.9818ZM16.3156 14.3151C15.7852 14.3151 15.2765 14.5258 14.9014 14.9009C14.5263 15.276 14.3156 15.7847 14.3156 16.3151C14.3156 16.8455 14.5263 17.3542 14.9014 17.7293C15.2765 18.1044 15.7852 18.3151 16.3156 18.3151C16.846 18.3151 17.3547 18.1044 17.7298 17.7293C18.1049 17.3542 18.3156 16.8455 18.3156 16.3151C18.3156 15.7847 18.1049 15.276 17.7298 14.9009C17.3547 14.5258 16.846 14.3151 16.3156 14.3151Z" fill="white"/>
<rect x="0.346491" y="0.346491" width="31.307" height="31.307" rx="15.6535" stroke="#FF8811" stroke-width="0.692982"/>
</svg>
