<svg width="32" height="32" viewBox="0 0 32 32" fill="none" xmlns="http://www.w3.org/2000/svg">
<rect x="0.346491" y="0.346491" width="31.307" height="31.307" rx="15.6535" fill="#FF8811"/>
<path d="M20.6667 10C21.0203 10 21.3594 10.1405 21.6095 10.3905C21.8595 10.6406 22 10.9797 22 11.3333V20.6667C22 21.0203 21.8595 21.3594 21.6095 21.6095C21.3594 21.8595 21.0203 22 20.6667 22H11.3333C10.9797 22 10.6406 21.8595 10.3905 21.6095C10.1405 21.3594 10 21.0203 10 20.6667V11.3333C10 10.9797 10.1405 10.6406 10.3905 10.3905C10.6406 10.1405 10.9797 10 11.3333 10H20.6667ZM20.3333 20.3333V16.8C20.3333 16.2236 20.1044 15.6708 19.6968 15.2632C19.2892 14.8556 18.7364 14.6267 18.16 14.6267C17.5933 14.6267 16.9333 14.9733 16.6133 15.4933V14.7533H14.7533V20.3333H16.6133V17.0467C16.6133 16.5333 17.0267 16.1133 17.54 16.1133C17.7875 16.1133 18.0249 16.2117 18.2 16.3867C18.375 16.5617 18.4733 16.7991 18.4733 17.0467V20.3333H20.3333ZM12.5867 13.7067C12.8837 13.7067 13.1686 13.5887 13.3786 13.3786C13.5887 13.1686 13.7067 12.8837 13.7067 12.5867C13.7067 11.9667 13.2067 11.46 12.5867 11.46C12.2879 11.46 12.0013 11.5787 11.79 11.79C11.5787 12.0013 11.46 12.2879 11.46 12.5867C11.46 13.2067 11.9667 13.7067 12.5867 13.7067ZM13.5133 20.3333V14.7533H11.6667V20.3333H13.5133Z" fill="white"/>
<rect x="0.346491" y="0.346491" width="31.307" height="31.307" rx="15.6535" stroke="#FF8811" stroke-width="0.692982"/>
</svg>
