<svg width="192" height="56" viewBox="0 0 192 56" fill="none" xmlns="http://www.w3.org/2000/svg">
<path d="M63.0935 28.4987C63.0935 26.4302 63.541 24.5905 64.436 22.9795C65.331 21.3486 66.5741 20.0857 68.1652 19.1907C69.7762 18.2758 71.596 17.8183 73.6247 17.8183C76.1108 17.8183 78.2389 18.4747 80.009 19.7873C81.7791 21.1 82.9625 22.89 83.5592 25.1573H77.9505C77.5328 24.2822 76.9362 23.6159 76.1605 23.1585C75.4047 22.7011 74.5396 22.4723 73.565 22.4723C71.9938 22.4723 70.7209 23.0193 69.7463 24.1132C68.7718 25.2071 68.2845 26.6689 68.2845 28.4987C68.2845 30.3284 68.7718 31.7903 69.7463 32.8842C70.7209 33.9781 71.9938 34.525 73.565 34.525C74.5396 34.525 75.4047 34.2963 76.1605 33.8388C76.9362 33.3814 77.5328 32.7151 77.9505 31.84H83.5592C82.9625 34.1073 81.7791 35.8973 80.009 37.21C78.2389 38.5028 76.1108 39.1492 73.6247 39.1492C71.596 39.1492 69.7762 38.7017 68.1652 37.8067C66.5741 36.8918 65.331 35.6288 64.436 34.0178C63.541 32.4068 63.0935 30.5671 63.0935 28.4987ZM96.3194 22.174C98.2288 22.174 99.7602 22.8104 100.914 24.0833C102.067 25.3363 102.644 27.0667 102.644 29.2743V39H97.5724V29.9605C97.5724 28.8467 97.2841 27.9816 96.7073 27.365C96.1305 26.7484 95.3548 26.4402 94.3803 26.4402C93.4057 26.4402 92.6301 26.7484 92.0533 27.365C91.4765 27.9816 91.1881 28.8467 91.1881 29.9605V39H86.0866V16.9233H91.1881V24.5905C91.7052 23.8546 92.4113 23.2679 93.3063 22.8303C94.2013 22.3928 95.2057 22.174 96.3194 22.174ZM121.285 30.408C121.285 30.8853 121.255 31.3826 121.195 31.8997H109.65C109.729 32.9339 110.058 33.7294 110.634 34.2863C111.231 34.8233 111.957 35.0918 112.812 35.0918C114.085 35.0918 114.97 34.5548 115.467 33.4808H120.897C120.619 34.5747 120.111 35.5592 119.375 36.4343C118.659 37.3094 117.755 37.9956 116.661 38.4928C115.567 38.9901 114.344 39.2387 112.991 39.2387C111.36 39.2387 109.908 38.8906 108.635 38.1945C107.363 37.4984 106.368 36.5039 105.652 35.2112C104.936 33.9184 104.578 32.4068 104.578 30.6765C104.578 28.9462 104.926 27.4346 105.622 26.1418C106.338 24.8491 107.333 23.8546 108.606 23.1585C109.879 22.4624 111.34 22.1143 112.991 22.1143C114.602 22.1143 116.034 22.4524 117.287 23.1287C118.54 23.8049 119.515 24.7695 120.211 26.0225C120.927 27.2755 121.285 28.7373 121.285 30.408ZM116.064 29.0655C116.064 28.1904 115.766 27.4943 115.169 26.9772C114.572 26.4601 113.826 26.2015 112.931 26.2015C112.076 26.2015 111.35 26.4501 110.754 26.9473C110.177 27.4446 109.819 28.1506 109.68 29.0655H116.064ZM131.733 26.5893H128.988V39H123.887V26.5893H122.037V22.353H123.887V21.8757C123.887 19.8271 124.473 18.2758 125.647 17.2217C126.82 16.1477 128.541 15.6107 130.808 15.6107C131.186 15.6107 131.464 15.6206 131.643 15.6405V19.9663C130.669 19.9067 129.983 20.0459 129.585 20.384C129.187 20.7221 128.988 21.3287 128.988 22.2038V22.353H131.733V26.5893ZM143.706 39L138.635 32.019V39H133.533V16.9233H138.635V29.1252L143.677 22.353H149.971L143.05 30.7063L150.031 39H143.706ZM161.223 36.673C160.786 37.4487 160.06 38.0851 159.046 38.5823C158.031 39.0796 156.947 39.3282 155.794 39.3282C154.779 39.3282 153.855 39.1293 153.019 38.7315C152.204 38.3138 151.557 37.7371 151.08 37.0012C150.603 36.2653 150.364 35.4101 150.364 34.4355C150.364 32.9041 150.961 31.661 152.154 30.7063C153.347 29.7318 155.128 29.2445 157.494 29.2445H161.223C161.184 28.3296 160.925 27.6136 160.448 27.0965C159.99 26.5595 159.354 26.291 158.538 26.291C157.803 26.291 157.196 26.4799 156.719 26.8578C156.241 27.2357 155.923 27.7528 155.764 28.4092H150.662C150.901 27.1959 151.378 26.112 152.094 25.1573C152.81 24.2027 153.725 23.4568 154.839 22.9198C155.973 22.3629 157.236 22.0845 158.628 22.0845C160.12 22.0845 161.452 22.3729 162.626 22.9497C163.799 23.5264 164.714 24.3618 165.37 25.4557C166.027 26.5297 166.355 27.7827 166.355 29.2147V39H161.223V36.673ZM157.584 35.4797C158.18 35.4797 158.757 35.3504 159.314 35.0918C159.871 34.8134 160.319 34.4256 160.657 33.9283C161.015 33.4112 161.194 32.8245 161.194 32.1682V31.9593H158.031C157.196 31.9593 156.569 32.1284 156.152 32.4665C155.754 32.7847 155.555 33.2123 155.555 33.7493C155.555 34.2863 155.734 34.7139 156.092 35.0322C156.45 35.3305 156.947 35.4797 157.584 35.4797ZM174.558 25.1275C175.155 24.2126 175.901 23.4966 176.796 22.9795C177.691 22.4425 178.685 22.174 179.779 22.174V27.5738H178.377C177.104 27.5738 176.149 27.8523 175.513 28.4092C174.877 28.9462 174.558 29.9008 174.558 31.2732V39H169.457V22.353H174.558V25.1275ZM190.899 34.6742V39H188.304C186.454 39 185.012 38.5525 183.978 37.6575C182.943 36.7426 182.426 35.2609 182.426 33.2123V26.5893H180.398V22.353H182.426V18.2957H187.528V22.353H190.869V26.5893H187.528V33.272C187.528 33.7692 187.647 34.1272 187.886 34.346C188.125 34.5648 188.522 34.6742 189.079 34.6742H190.899Z" fill="white"/>
<circle cx="28" cy="28" r="28" fill="#E5871C"/>
<path d="M22.2717 21.6995C21.8732 20.1058 20.5361 19.2994 19.7516 19.0319C20.2088 19.2714 20.8678 20.1397 21.1796 20.6075C21.1796 21.0443 20.4515 21.5175 20.0875 21.6995C17.3573 23.3377 14.081 21.1535 15.1731 17.8772C16.0467 15.2562 19.1774 14.601 20.6335 14.601C20.1967 14.1641 18.9954 14.0549 18.4494 14.0549C18.4494 11.3247 20.0875 8.59431 23.9098 8.04826C26.9677 7.61142 28.8242 10.2326 29.3703 11.8707C29.3703 10.997 29.0063 10.0505 28.8242 9.68647C32.6466 9.14042 34.2847 9.68647 34.8308 12.9628C35.2676 15.5838 32.4645 16.9671 31.0084 17.3311C30.5716 16.8943 30.4624 14.9649 30.4624 14.0548C30.2804 14.9649 30.0255 17.1127 30.4624 18.4232C30.8992 19.7337 30.2804 20.0613 29.9163 20.0613C28.6422 20.0613 25.7664 20.389 24.4559 21.6995C23.1453 23.01 22.4537 22.2455 22.2717 21.6995Z" fill="white"/>
<path d="M19.3257 33.6146C19.3257 31.4034 19.8041 29.4368 20.7608 27.7146C21.7176 25.9712 23.0464 24.6211 24.7473 23.6643C26.4695 22.6863 28.4149 22.1973 30.5836 22.1973C33.2412 22.1973 35.5162 22.8989 37.4085 24.3021C39.3007 25.7054 40.5658 27.6189 41.2036 30.0427H35.2079C34.7614 29.1072 34.1236 28.3949 33.2944 27.9059C32.4865 27.4169 31.5616 27.1724 30.5198 27.1724C28.8401 27.1724 27.4794 27.7571 26.4376 28.9265C25.3958 30.0959 24.8749 31.6586 24.8749 33.6146C24.8749 35.5706 25.3958 37.1334 26.4376 38.3027C27.4794 39.4721 28.8401 40.0568 30.5198 40.0568C31.5616 40.0568 32.4865 39.8123 33.2944 39.3233C34.1236 38.8343 34.7614 38.122 35.2079 37.1865H41.2036C40.5658 39.6103 39.3007 41.5238 37.4085 42.9271C35.5162 44.3091 33.2412 45.0001 30.5836 45.0001C28.4149 45.0001 26.4695 44.5217 24.7473 43.5649C23.0464 42.5869 21.7176 41.2368 20.7608 39.5146C19.8041 37.7925 19.3257 35.8258 19.3257 33.6146Z" fill="white"/>
</svg>
