<svg width="17" height="17" viewBox="0 0 17 17" fill="none" xmlns="http://www.w3.org/2000/svg">
<path fill-rule="evenodd" clip-rule="evenodd" d="M8.89786 0.982481L11.2566 5.83426L16.5292 6.61246C16.6657 6.633 16.7789 6.73 16.8214 6.86284C16.864 6.99568 16.8284 7.14143 16.7298 7.23903L12.9152 11.0148L13.8158 16.3473C13.8395 16.4848 13.7838 16.624 13.6723 16.7062C13.5608 16.7883 13.4128 16.7992 13.2907 16.7342L8.5744 14.2171L3.85809 16.7349C3.73608 16.8002 3.58801 16.7895 3.47643 16.7073C3.36484 16.6252 3.3092 16.4859 3.33301 16.3484L4.23365 11.0148L0.417973 7.23903C0.319287 7.14143 0.283762 6.99568 0.32628 6.86284C0.368797 6.73 0.482016 6.633 0.618515 6.61246L5.89117 5.83426L8.25095 0.982481C8.311 0.857026 8.43664 0.777344 8.5744 0.777344C8.71217 0.777344 8.83781 0.857026 8.89786 0.982481Z" fill="#F59E0B"/>
</svg>
