<svg width="28" height="28" viewBox="0 0 28 28" fill="none" xmlns="http://www.w3.org/2000/svg">
<circle cx="14" cy="14" r="14" fill="white"/>
<path d="M21.5541 17.2382C21.3405 17.0095 21.0506 16.8669 20.7391 16.8373V16.5993V16.573C20.671 15.0758 19.9853 13.6201 18.8087 12.4764C17.662 11.3624 16.1837 10.6664 14.6451 10.5163L14.6145 10.5136V9.73053C14.8393 9.57001 14.9858 9.32186 15.0176 9.04741C15.0495 8.77307 14.9637 8.49797 14.7816 8.29021C14.5996 8.08254 14.338 7.96151 14.0618 7.95715C13.7856 7.9528 13.5204 8.06551 13.3319 8.26738C13.1433 8.46927 13.0489 8.74143 13.072 9.01674C13.0952 9.29206 13.2338 9.54468 13.4534 9.71221V10.5219C11.933 10.682 10.474 11.3744 9.33984 12.4774C8.16314 13.6211 7.47751 15.0746 7.4094 16.574V16.6003V16.834L7.40929 16.8339C7.07898 16.8526 6.76841 16.9977 6.54218 17.2391C6.29556 17.5119 6.18284 17.88 6.23444 18.244C6.24546 18.3277 6.25648 18.4112 6.26838 18.4968C6.3524 19.0945 6.81838 19.6151 7.39216 19.7978C7.40133 19.8543 7.41169 19.9185 7.42272 19.9915C7.45327 20.1748 7.48928 20.4028 7.49419 20.4364C7.58412 21.071 8.15332 21.6064 8.79191 21.658C10.5439 21.7958 12.3077 21.8646 14.0721 21.8646C15.8367 21.8646 17.6015 21.7958 19.3545 21.658C19.9919 21.6064 20.5615 21.0698 20.6507 20.4358C20.6556 20.4025 20.6928 20.1718 20.7228 19.9863C20.7357 19.9081 20.7467 19.8395 20.7561 19.7807C21.3046 19.5836 21.7458 19.0761 21.8277 18.495C21.8391 18.4117 21.8503 18.3282 21.861 18.2463V18.2462C21.9133 17.8813 21.8008 17.512 21.5539 17.2382L21.5541 17.2382ZM10.1503 13.3101C11.1079 12.3794 12.338 11.7983 13.6146 11.6733C13.7674 11.6614 14.2172 11.6388 14.5237 11.6733H14.5304C15.8088 11.7958 17.042 12.3773 18.0001 13.3101C18.958 14.243 19.5214 15.4157 19.5782 16.613V16.8734C15.9217 17.0262 12.228 17.0262 8.57003 16.8756V16.613C8.62929 15.4156 9.18965 14.2428 10.1506 13.3101L10.1503 13.3101ZM19.9676 19.3072L19.7576 19.2793L20.2392 19.3405L19.9676 19.3072ZM20.7104 18.0953C20.7 18.1763 20.6893 18.257 20.6783 18.3358C20.6545 18.5058 20.4556 18.6927 20.2854 18.7068L20.248 18.7095C20.1014 18.7213 19.9631 18.7831 19.8566 18.8846C19.7501 18.9862 19.6817 19.1214 19.6629 19.2674C19.6568 19.3109 19.611 19.594 19.5774 19.8015C19.5273 20.1119 19.5062 20.2421 19.5016 20.2754C19.4879 20.3732 19.3599 20.4936 19.2626 20.5015C15.8086 20.7717 12.339 20.7717 8.88495 20.5015C8.78652 20.4932 8.65851 20.3729 8.64509 20.277C8.64018 20.2418 8.61945 20.1135 8.56958 19.8067C8.53564 19.5966 8.48926 19.3093 8.48337 19.2686V19.2664H8.48348C8.46384 19.1214 8.3952 18.9875 8.28891 18.8868C8.18262 18.7862 8.04513 18.7249 7.89923 18.7131L7.81248 18.7063C7.64137 18.6922 7.44244 18.5053 7.41863 18.3372C7.40761 18.2563 7.39692 18.1756 7.38622 18.0928C7.38 18.069 7.38448 18.0437 7.39844 18.0235C7.41459 18.0058 7.45497 17.9877 7.51761 17.9911C11.8511 18.2034 16.2457 18.2034 20.5791 17.9911C20.643 17.9884 20.6827 18.006 20.6989 18.0235H20.6988C20.7128 18.0443 20.7169 18.0702 20.7105 18.0943L20.7104 18.0953Z" fill="#E5871C"/>
<path d="M10.0304 15.7446C10.1717 15.8059 10.3316 15.8085 10.4749 15.7519C10.6182 15.6952 10.733 15.584 10.7942 15.4426C11.0344 14.8889 11.4707 14.3931 12.0229 14.0466C12.1962 13.9353 12.2975 13.7406 12.2892 13.5348C12.2809 13.3291 12.1643 13.143 11.9827 13.046C11.801 12.949 11.5816 12.9554 11.406 13.063C10.657 13.5329 10.0615 14.2141 9.72915 14.981V14.9809C9.66783 15.1221 9.66521 15.2819 9.72162 15.4251C9.77815 15.5683 9.88924 15.6832 10.0303 15.7446L10.0304 15.7446Z" fill="#E5871C"/>
<path d="M18.5217 18.7683C18.5067 18.7683 16.9982 18.8848 15.6188 18.8848C15.4115 18.8848 15.2198 18.9954 15.1161 19.175C15.0124 19.3547 15.0124 19.576 15.1161 19.7556C15.2197 19.9352 15.4115 20.0459 15.6188 20.0459C17.0439 20.0459 18.5479 19.9306 18.6111 19.9258L18.6112 19.9257C18.7668 19.9167 18.9122 19.8454 19.0147 19.728C19.1172 19.6106 19.1682 19.4568 19.1561 19.3014C19.1441 19.146 19.0701 19.0019 18.9507 18.9017C18.8315 18.8014 18.6767 18.7534 18.5216 18.7683L18.5217 18.7683Z" fill="#E5871C"/>
<path d="M8.92665 10.2122C8.82658 10.3291 8.77692 10.481 8.78893 10.6346C8.80082 10.7881 8.87317 10.9305 8.99015 11.0307C9.10714 11.1308 9.25915 11.1803 9.41269 11.1684C9.56612 11.1565 9.70864 11.0841 9.80882 10.9671C10.3475 10.3383 10.3475 9.52524 9.80882 8.89612C9.64077 8.69969 9.64044 8.53186 9.80882 8.3351L9.81122 8.33238C9.91162 8.21528 9.96127 8.06306 9.94927 7.9092C9.93715 7.75544 9.86447 7.61283 9.74706 7.51276C9.62964 7.41269 9.4773 7.36348 9.32354 7.37592C9.16979 7.38836 9.02728 7.46158 8.92752 7.57922L8.92534 7.5814C8.38821 8.21018 8.38877 9.02273 8.92534 9.65118C9.09503 9.84794 9.09503 10.0157 8.92665 10.2122L8.92665 10.2122Z" fill="#E5871C"/>
<path d="M16.4107 9.05999C16.3074 9.17653 16.2553 9.32963 16.2661 9.48503C16.2768 9.64032 16.3495 9.7849 16.4679 9.88606C16.5861 9.98732 16.7401 10.0368 16.8953 10.0233C17.0504 10.0099 17.1937 9.93473 17.2928 9.81469C17.8312 9.1859 17.8312 8.37282 17.2928 7.7437C17.1248 7.54728 17.1245 7.37945 17.2907 7.18521L17.2931 7.18248L17.2932 7.18237C17.4286 7.02523 17.4698 6.80775 17.4014 6.61186C17.3331 6.41609 17.1654 6.2716 16.9616 6.23288C16.7578 6.19414 16.5488 6.26714 16.4134 6.42428L16.4095 6.42919C15.8723 7.05798 15.8729 7.87019 16.4095 8.49864C16.5791 8.69605 16.5791 8.86324 16.4107 9.05999L16.4107 9.05999Z" fill="#E5871C"/>
<path d="M19.7572 10.9593C19.6571 11.0763 19.6074 11.2282 19.6195 11.3817C19.6313 11.5352 19.7037 11.6778 19.8207 11.7778C19.9377 11.8779 20.0897 11.9275 20.2432 11.9155C20.3966 11.9036 20.5392 11.8313 20.6393 11.7143C21.1778 11.0852 21.1778 10.2725 20.6393 9.64333C20.471 9.44691 20.471 9.27907 20.6393 9.08232L20.6417 9.07959V9.07948C20.7763 8.92169 20.8165 8.70399 20.7471 8.50852C20.6776 8.31297 20.5093 8.16935 20.3053 8.13172C20.1013 8.09407 19.8927 8.16817 19.7581 8.32596L19.7559 8.32837C19.219 8.95715 19.2193 9.7697 19.7574 10.3981C19.9256 10.5947 19.9256 10.7627 19.7572 10.9593L19.7572 10.9593Z" fill="#E5871C"/>
</svg>
