<svg width="32" height="32" viewBox="0 0 32 32" fill="none" xmlns="http://www.w3.org/2000/svg">
<rect x="0.346491" y="0.346491" width="31.307" height="31.307" rx="15.6535" fill="#FF8811"/>
<path d="M23.289 12.3158C22.7756 12.5491 22.2223 12.7024 21.649 12.7758C22.2356 12.4224 22.689 11.8624 22.9023 11.1891C22.349 11.5224 21.7356 11.7558 21.089 11.8891C20.5623 11.3158 19.8223 10.9824 18.9823 10.9824C17.4156 10.9824 16.1356 12.2624 16.1356 13.8424C16.1356 14.0691 16.1623 14.2891 16.209 14.4958C13.8356 14.3758 11.7223 13.2358 10.3156 11.5091C10.069 11.9291 9.92895 12.4224 9.92895 12.9424C9.92895 13.9358 10.429 14.8158 11.2023 15.3158C10.729 15.3158 10.289 15.1824 9.90229 14.9824V15.0024C9.90229 16.3891 10.889 17.5491 12.1956 17.8091C11.7761 17.9239 11.3357 17.9399 10.909 17.8558C11.09 18.4241 11.4446 18.9214 11.923 19.2777C12.4013 19.6341 12.9792 19.8315 13.5756 19.8424C12.5647 20.6427 11.3116 21.0753 10.0223 21.0691C9.79562 21.0691 9.56895 21.0558 9.34229 21.0291C10.609 21.8424 12.1156 22.3158 13.729 22.3158C18.9823 22.3158 21.869 17.9558 21.869 14.1758C21.869 14.0491 21.869 13.9291 21.8623 13.8024C22.4223 13.4024 22.9023 12.8958 23.289 12.3158Z" fill="white"/>
<rect x="0.346491" y="0.346491" width="31.307" height="31.307" rx="15.6535" stroke="#FF8811" stroke-width="0.692982"/>
</svg>
