<svg width="65" height="22" viewBox="0 0 65 22" fill="none" xmlns="http://www.w3.org/2000/svg">
<path d="M3.68722 15.4569C3.95805 16.1513 4.33301 16.7451 4.81217 17.2382C5.29132 17.7313 5.85898 18.1087 6.51514 18.3704C7.17137 18.6321 7.88485 18.7629 8.65565 18.7629C9.40563 18.7629 10.1087 18.627 10.7649 18.3552C11.4211 18.0835 11.994 17.7011 12.4835 17.208C12.973 16.7148 13.3532 16.1261 13.6241 15.4418C13.8949 14.7574 14.0303 13.9927 14.0303 13.1472V0.104492H17.3113V21.2385H14.0615V19.2761C13.3324 20.0207 12.4731 20.5944 11.4836 20.997C10.494 21.3995 9.42645 21.6008 8.28069 21.6008C7.11405 21.6008 6.02561 21.4045 5.01524 21.0121C4.00493 20.6196 3.12993 20.0611 2.39046 19.3365C1.65098 18.6118 1.06763 17.7414 0.640603 16.7249C0.213511 15.7085 0 14.5763 0 13.3284V0.104492H3.28101V13.1472C3.28101 13.9927 3.41639 14.7625 3.68722 15.4569Z" fill="black"/>
<path d="M22.9665 0.104492V7.80331C23.6957 7.09885 24.5394 6.54036 25.4976 6.1277C26.4559 5.71505 27.4975 5.50875 28.6224 5.50875C29.789 5.50875 30.8826 5.72006 31.9034 6.14273C32.9241 6.56541 33.8094 7.13906 34.5594 7.8637C35.3094 8.58833 35.9031 9.4437 36.3406 10.4299C36.7781 11.4163 36.9968 12.4629 36.9968 13.5699C36.9968 14.6769 36.7781 15.7185 36.3406 16.6947C35.9031 17.6709 35.3094 18.5213 34.5594 19.2458C33.8094 19.9704 32.9241 20.5441 31.9034 20.9668C30.8826 21.3894 29.789 21.6008 28.6224 21.6008C27.4974 21.6008 26.4507 21.3945 25.482 20.9818C24.5133 20.5692 23.6644 20.0107 22.9353 19.3062V21.2385H19.8105V0.104492H22.9665ZM23.3259 15.6531C23.6071 16.2972 23.9977 16.8608 24.4977 17.3439C24.9977 17.8269 25.581 18.2094 26.2476 18.4912C26.9142 18.773 27.6329 18.9139 28.4037 18.9139C29.1537 18.9139 29.8619 18.773 30.5285 18.4912C31.1951 18.2094 31.7731 17.827 32.2628 17.3439C32.7523 16.8609 33.1429 16.2972 33.4346 15.6531C33.7262 15.009 33.872 14.3147 33.872 13.5699C33.872 12.8252 33.7262 12.1257 33.4346 11.4716C33.1429 10.8174 32.7523 10.2488 32.2628 9.76577C31.7732 9.28277 31.1952 8.90532 30.5285 8.63363C29.8618 8.36193 29.1536 8.22598 28.4037 8.22598C27.6538 8.22598 26.9455 8.36186 26.2789 8.63363C25.6123 8.90539 25.029 9.28277 24.529 9.76577C24.0291 10.2488 23.6332 10.8174 23.3416 11.4716C23.0499 12.1257 22.9041 12.8252 22.9041 13.5699C22.904 14.3147 23.0447 15.009 23.3259 15.6531Z" fill="black"/>
<path d="M38.7772 10.4602C39.1938 9.49405 39.7667 8.64369 40.4958 7.90904C41.2248 7.17438 42.0894 6.59572 43.0894 6.17304C44.0893 5.75037 45.1726 5.53906 46.3391 5.53906C47.4849 5.53906 48.5473 5.74035 49.5265 6.14285C50.5055 6.54541 51.3492 7.10397 52.0575 7.81852C52.7658 8.533 53.3179 9.37841 53.7136 10.3546C54.1094 11.3308 54.3073 12.3925 54.3073 13.5398V14.5362H41.3395C41.4437 15.1601 41.652 15.7388 41.9645 16.2721C42.277 16.8055 42.6675 17.2684 43.1363 17.6609C43.605 18.0534 44.1362 18.3604 44.7299 18.5817C45.3236 18.8031 45.9537 18.9139 46.6204 18.9139C48.5161 18.9139 50.0473 18.1591 51.2139 16.6495L53.4949 18.2798C52.7033 19.3063 51.7243 20.1114 50.5577 20.6951C49.3911 21.2788 48.0787 21.5707 46.6205 21.5707C45.433 21.5707 44.3238 21.3693 43.2926 20.9668C42.2614 20.5643 41.3657 20.0007 40.6053 19.276C39.8449 18.5514 39.246 17.7011 38.8086 16.7249C38.3711 15.7487 38.1523 14.6869 38.1523 13.5397C38.1522 12.4528 38.3606 11.4263 38.7772 10.4602ZM43.1675 9.26759C42.2821 9.98213 41.6937 10.9332 41.402 12.1207H51.1201C50.8493 10.9332 50.2712 9.98213 49.3858 9.26759C48.5005 8.55311 47.4641 8.19583 46.2767 8.19583C45.0893 8.19583 44.0529 8.55311 43.1675 9.26759Z" fill="black"/>
<path d="M60.2146 9.61446C59.548 10.3189 59.2147 11.275 59.2147 12.4827V21.2383H56.0586V5.84058H59.1833V7.74265C59.5792 7.11869 60.0948 6.62554 60.7301 6.26325C61.3655 5.9009 62.1206 5.71973 62.9956 5.71973H64.0893V8.55774H62.7769C61.7353 8.55781 60.8812 8.91 60.2146 9.61446Z" fill="black"/>
</svg>
