<svg width="29" height="23" viewBox="0 0 29 23" fill="none" xmlns="http://www.w3.org/2000/svg">
<path d="M28.1645 3.125C27.1539 3.58437 26.0645 3.88625 24.9358 4.03063C26.0908 3.335 26.9833 2.2325 27.4033 0.906875C26.3139 1.56312 25.1064 2.0225 23.8333 2.285C22.7964 1.15625 21.3395 0.5 19.6858 0.5C16.6014 0.5 14.0814 3.02 14.0814 6.13062C14.0814 6.57687 14.1339 7.01 14.2258 7.41688C9.55328 7.18063 5.39266 4.93625 2.62328 1.53688C2.13766 2.36375 1.86203 3.335 1.86203 4.35875C1.86203 6.31437 2.84641 8.04688 4.36891 9.03125C3.43703 9.03125 2.57078 8.76875 1.80953 8.375V8.41437C1.80953 11.1444 3.75203 13.4281 6.32453 13.94C5.49861 14.166 4.63153 14.1975 3.79141 14.0319C4.14789 15.1508 4.84605 16.1298 5.78774 16.8313C6.72943 17.5329 7.86731 17.9217 9.04141 17.9431C7.05117 19.5187 4.58415 20.3704 2.04578 20.3581C1.59953 20.3581 1.15328 20.3319 0.707031 20.2794C3.20078 21.8806 6.16703 22.8125 9.34328 22.8125C19.6858 22.8125 25.3689 14.2288 25.3689 6.78687C25.3689 6.5375 25.3689 6.30125 25.3558 6.05187C26.4583 5.26437 27.4033 4.26688 28.1645 3.125Z" fill="#373737"/>
</svg>
