<svg width="25" height="24" viewBox="0 0 25 24" fill="none" xmlns="http://www.w3.org/2000/svg">
<path d="M21.625 0.1875C22.3212 0.1875 22.9889 0.464062 23.4812 0.956345C23.9734 1.44863 24.25 2.11631 24.25 2.8125V21.1875C24.25 21.8837 23.9734 22.5514 23.4812 23.0437C22.9889 23.5359 22.3212 23.8125 21.625 23.8125H3.25C2.55381 23.8125 1.88613 23.5359 1.39384 23.0437C0.901562 22.5514 0.625 21.8837 0.625 21.1875V2.8125C0.625 2.11631 0.901562 1.44863 1.39384 0.956345C1.88613 0.464062 2.55381 0.1875 3.25 0.1875H21.625ZM20.9688 20.5312V13.575C20.9688 12.4402 20.518 11.3519 19.7155 10.5495C18.9131 9.74705 17.8248 9.29625 16.69 9.29625C15.5744 9.29625 14.275 9.97875 13.645 11.0025V9.54562H9.98312V20.5312H13.645V14.0606C13.645 13.05 14.4588 12.2231 15.4694 12.2231C15.9567 12.2231 16.4241 12.4167 16.7687 12.7613C17.1133 13.1059 17.3069 13.5733 17.3069 14.0606V20.5312H20.9688ZM5.7175 7.485C6.3023 7.485 6.86315 7.25269 7.27667 6.83917C7.69019 6.42565 7.9225 5.8648 7.9225 5.28C7.9225 4.05938 6.93813 3.06188 5.7175 3.06188C5.12922 3.06188 4.56503 3.29557 4.14905 3.71155C3.73307 4.12753 3.49938 4.69172 3.49938 5.28C3.49938 6.50063 4.49688 7.485 5.7175 7.485ZM7.54188 20.5312V9.54562H3.90625V20.5312H7.54188Z" fill="#373737"/>
</svg>
