<svg width="27" height="28" viewBox="0 0 27 28" fill="none" xmlns="http://www.w3.org/2000/svg">
<path d="M7.925 0.875H18.95C23.15 0.875 26.5625 4.2875 26.5625 8.4875V19.5125C26.5625 21.5315 25.7605 23.4677 24.3329 24.8954C22.9052 26.323 20.969 27.125 18.95 27.125H7.925C3.725 27.125 0.3125 23.7125 0.3125 19.5125V8.4875C0.3125 6.46854 1.11453 4.53227 2.54215 3.10465C3.96977 1.67703 5.90604 0.875 7.925 0.875ZM7.6625 3.5C6.40935 3.5 5.20753 3.99781 4.32142 4.88392C3.43531 5.77003 2.9375 6.97185 2.9375 8.225V19.775C2.9375 22.3869 5.05062 24.5 7.6625 24.5H19.2125C20.4656 24.5 21.6675 24.0022 22.5536 23.1161C23.4397 22.23 23.9375 21.0281 23.9375 19.775V8.225C23.9375 5.61312 21.8244 3.5 19.2125 3.5H7.6625ZM20.3281 5.46875C20.7632 5.46875 21.1805 5.6416 21.4882 5.94928C21.7959 6.25695 21.9688 6.67425 21.9688 7.10938C21.9688 7.5445 21.7959 7.9618 21.4882 8.26947C21.1805 8.57715 20.7632 8.75 20.3281 8.75C19.893 8.75 19.4757 8.57715 19.168 8.26947C18.8603 7.9618 18.6875 7.5445 18.6875 7.10938C18.6875 6.67425 18.8603 6.25695 19.168 5.94928C19.4757 5.6416 19.893 5.46875 20.3281 5.46875ZM13.4375 7.4375C15.178 7.4375 16.8472 8.1289 18.0779 9.35961C19.3086 10.5903 20 12.2595 20 14C20 15.7405 19.3086 17.4097 18.0779 18.6404C16.8472 19.8711 15.178 20.5625 13.4375 20.5625C11.697 20.5625 10.0278 19.8711 8.79711 18.6404C7.5664 17.4097 6.875 15.7405 6.875 14C6.875 12.2595 7.5664 10.5903 8.79711 9.35961C10.0278 8.1289 11.697 7.4375 13.4375 7.4375ZM13.4375 10.0625C12.3932 10.0625 11.3917 10.4773 10.6533 11.2158C9.91484 11.9542 9.5 12.9557 9.5 14C9.5 15.0443 9.91484 16.0458 10.6533 16.7842C11.3917 17.5227 12.3932 17.9375 13.4375 17.9375C14.4818 17.9375 15.4833 17.5227 16.2217 16.7842C16.9602 16.0458 17.375 15.0443 17.375 14C17.375 12.9557 16.9602 11.9542 16.2217 11.2158C15.4833 10.4773 14.4818 10.0625 13.4375 10.0625Z" fill="#373737"/>
</svg>
