<svg width="27" height="28" viewBox="0 0 27 28" fill="none" xmlns="http://www.w3.org/2000/svg">
<path d="M13.4375 0.925781C6.21875 0.925781 0.3125 6.81891 0.3125 14.077C0.3125 20.6395 5.11625 26.0864 11.39 27.0708V17.8833H8.05625V14.077H11.39V11.1764C11.39 7.88203 13.3456 6.07078 16.3512 6.07078C17.7819 6.07078 19.2781 6.32016 19.2781 6.32016V9.56203H17.6244C15.9969 9.56203 15.485 10.5727 15.485 11.6095V14.077H19.1338L18.5431 17.8833H15.485V27.0708C18.5778 26.5823 21.3941 25.0043 23.4255 22.6215C25.4569 20.2387 26.5695 17.2082 26.5625 14.077C26.5625 6.81891 20.6562 0.925781 13.4375 0.925781Z" fill="#373737"/>
</svg>
