<svg width="114" height="28" viewBox="0 0 114 28" fill="none" xmlns="http://www.w3.org/2000/svg">
<g opacity="0.7">
<path d="M0.0878906 5.81425C0.0878906 5.81425 2.9196 17.5118 3.37154 19.4105C3.89902 21.6266 4.84945 22.4423 7.58973 21.8922L9.35793 14.6398C9.80607 12.8383 10.1067 11.554 10.3947 9.72149H10.4454C10.6478 11.572 10.936 12.8437 11.3048 14.6461C11.3048 14.6461 12.0246 17.9385 12.3932 19.6678C12.7628 21.3964 13.7913 22.486 16.4754 21.8928L20.6886 5.81548H17.2869L15.8486 12.7665C15.4619 14.7898 15.111 16.3708 14.8404 18.2218H14.7924C14.5465 16.3892 14.2338 14.8709 13.8406 12.8996L12.343 5.81548H8.79878L7.1968 12.7211C6.74294 14.8195 6.31845 16.514 6.04851 18.3022H5.99962C5.72318 16.6182 5.35498 14.4885 4.95627 12.4572C4.95627 12.4572 4.0045 7.51799 3.67056 5.81548L0.0882218 5.81594L0.0878906 5.81425ZM32.5153 5.81425V21.8916H35.7539V18.4776V5.81348H32.5153V5.81425ZM78.1283 5.81425V17.6748C78.1283 19.31 78.4336 20.4557 79.0867 21.1557C79.6573 21.7678 80.5972 22.1642 81.7233 22.1642C82.6809 22.1642 83.6229 21.9811 84.0669 21.8144L84.0252 19.263C83.6948 19.345 83.3148 19.4106 82.7949 19.4106C81.6917 19.4106 81.3217 18.6983 81.3217 17.23V12.6922H84.1423V9.61614H81.3217V5.81429H78.1281L78.1283 5.81425ZM25.2777 9.54131C23.265 9.54131 21.6672 10.111 20.7964 10.6184L21.4337 12.8185C22.2307 12.3119 23.4998 11.8926 24.7015 11.8926C26.691 11.8874 27.0162 13.0266 27.0162 13.7573V13.9301C22.6811 13.9235 19.9428 15.4358 19.9428 18.5183C19.9428 20.4004 21.3368 22.1641 23.7607 22.1641C25.2528 22.1641 26.5007 21.5642 27.2485 20.603H27.3219C27.3219 20.603 27.8171 22.6905 30.5455 21.8922C30.4022 21.0234 30.3556 20.0971 30.3556 18.9814V14.6864C30.3556 11.949 29.1962 9.54136 25.2777 9.54136L25.2777 9.54131ZM44.6508 9.54131C42.6242 9.54131 41.7135 10.5767 41.1612 11.4551H41.1132V9.81396H38.0225V21.8924H41.2784V14.8089C41.2784 14.4768 41.316 14.1257 41.431 13.8202C41.7008 13.107 42.359 12.2728 43.4098 12.2728C44.7235 12.2728 45.3383 13.3924 45.3383 15.0083V21.8922H48.5907V14.7231C48.5907 14.4061 48.6338 14.0242 48.7263 13.744C48.9937 12.9327 49.7033 12.2726 50.6801 12.2726C52.0119 12.2726 52.6511 13.3728 52.6511 15.2742V21.8923H55.9058V14.7785C55.9058 11.0268 54.0161 9.54138 51.883 9.54138C50.9383 9.54138 50.1926 9.78017 49.5184 10.1974C48.9518 10.5479 48.4445 11.046 48.0011 11.7018H47.9531C47.4372 10.4001 46.2269 9.54138 44.6502 9.54138L44.6508 9.54131ZM62.5297 9.54131C60.5174 9.54131 58.92 10.111 58.0483 10.6184L58.6866 12.8185C59.4828 12.3119 60.7527 11.8926 61.9537 11.8926C63.9419 11.8874 64.2679 13.0266 64.2679 13.7573V13.9301C59.9334 13.9235 57.1948 15.4358 57.1948 18.5183C57.1948 20.4004 58.5895 22.1641 61.0146 22.1641C62.5055 22.1641 63.7538 21.5642 64.5003 20.603H64.574C64.574 20.603 65.0691 22.6905 67.7979 21.8922C67.6544 21.0234 67.6084 20.0971 67.6084 18.9814V14.6864C67.6084 11.949 66.4486 9.54136 62.5296 9.54136L62.5297 9.54131ZM76.0504 9.54131C74.8036 9.54131 73.3852 10.3526 72.7898 12.0918H72.6989V9.81381H69.768V21.8922H73.1091V15.7073C73.1091 15.3736 73.1292 15.0827 73.1816 14.816C73.4287 13.5204 74.4117 12.6922 75.8225 12.6922C76.2098 12.6922 76.487 12.7344 76.7869 12.7781V9.61603C76.5354 9.56481 76.3634 9.5412 76.0506 9.5412L76.0504 9.54131ZM27.1208 16.0704V17.5772C27.1208 17.8001 27.1016 18.0301 27.0403 18.2311C26.7897 19.068 25.9297 19.7752 24.8547 19.7752C23.9584 19.7752 23.2464 19.2624 23.2464 18.1776C23.2464 16.5183 25.0583 16.0596 27.1209 16.0704H27.1208ZM64.3728 16.0704V17.5772C64.3728 17.8001 64.3532 18.0301 64.2923 18.2311C64.0417 19.068 63.182 19.7752 62.107 19.7752C61.2105 19.7752 60.4984 19.2624 60.4984 18.1776C60.4984 16.5183 62.3103 16.0596 64.3729 16.0704H64.3728Z" fill="black"/>
<path d="M101.653 0C100.608 0 99.7768 0.588606 99.7768 1.30517L100.412 8.55342C100.482 8.99011 101.013 9.32696 101.654 9.32696C102.297 9.32611 102.826 8.98956 102.897 8.55342L103.535 1.30517C103.535 0.588668 102.702 6.15471e-05 101.655 6.15471e-05L101.653 0ZM91.3058 5.8142C90.763 5.82719 90.1463 6.24148 89.7541 6.92704C89.2296 7.83992 89.3225 8.86008 89.9363 9.21798L96.4797 12.2899C96.8885 12.4432 97.4437 12.1506 97.7652 11.5918C97.7652 11.5918 97.7651 11.5916 97.7652 11.5915C98.0881 11.03 98.0631 10.3987 97.7231 10.1187L91.8132 5.93991C91.6598 5.85029 91.4871 5.80997 91.3062 5.81429L91.3058 5.8142ZM112.001 5.8142C111.82 5.80988 111.648 5.8502 111.495 5.93982L105.584 10.1186C105.246 10.3986 105.221 11.03 105.542 11.5914L105.542 11.5917C105.865 12.1505 106.419 12.4431 106.827 12.2899L113.374 9.21804C113.99 8.86014 114.078 7.84003 113.557 6.9271C113.163 6.24153 112.546 5.82725 112.003 5.81427L112.001 5.8142ZM96.7242 15.3772C96.6395 15.3761 96.5575 15.3893 96.4806 15.4184L89.9372 18.4867C89.3234 18.8462 89.2305 19.8667 89.755 20.7806C90.278 21.6916 91.1998 22.1248 91.8137 21.7675L97.724 17.592C98.0641 17.3085 98.0892 16.6773 97.7661 16.1164L97.7688 16.1176C97.5075 15.6607 97.091 15.3822 96.7242 15.3771L96.7242 15.3772ZM106.586 15.3772C106.219 15.3823 105.803 15.6608 105.542 16.1177L105.544 16.1165C105.222 16.6774 105.247 17.3086 105.585 17.5921L111.496 21.7676C112.109 22.1249 113.031 21.6917 113.557 20.7807C114.078 19.8668 113.99 18.8462 113.373 18.4868L106.829 15.4185C106.752 15.3894 106.67 15.3762 106.586 15.3773L106.586 15.3772ZM101.652 18.3812C101.012 18.382 100.483 18.7174 100.413 19.1529L99.7777 26.4009C99.7777 27.1187 100.609 27.7061 101.654 27.7061C102.702 27.7061 103.534 27.1186 103.534 26.4009L102.898 19.1529C102.826 18.7174 102.298 18.382 101.655 18.3812H101.652H101.652Z" fill="black"/>
</g>
</svg>
